<svg width="18" height="18" viewBox="0 0 18 18" fill="none" xmlns="http://www.w3.org/2000/svg">
<path d="M4.83337 10.6667C4.46961 10.6672 4.11035 10.7471 3.78066 10.9008C3.45097 11.0546 3.1588 11.2784 2.92454 11.5567C2.69027 11.835 2.51956 12.161 2.42431 12.5121C2.32907 12.8632 2.31158 13.2308 2.37308 13.5893C2.43458 13.9478 2.57358 14.2886 2.78037 14.5879C2.98717 14.8872 3.25678 15.1377 3.57039 15.322C3.884 15.5063 4.23406 15.62 4.59613 15.655C4.9582 15.6901 5.32356 15.6457 5.66671 15.525" stroke="#FFB21E" stroke-width="1.25" stroke-linecap="round" stroke-linejoin="round"/>
<path d="M2.55336 12.0042C2.05467 11.7641 1.6236 11.4036 1.29907 10.9552C0.974544 10.5069 0.766768 9.98477 0.694495 9.43603C0.622223 8.88729 0.687729 8.32918 0.885102 7.81209C1.08248 7.295 1.4055 6.83519 1.82503 6.47417M1.85003 6.40667C1.57673 5.99771 1.45695 5.50524 1.51188 5.01644C1.56681 4.52765 1.79292 4.07405 2.15018 3.73596C2.50743 3.39786 2.97279 3.19707 3.46387 3.16914C3.95495 3.14121 4.44007 3.28793 4.83336 3.58333M5.0317 3.6375C4.89876 3.35504 4.831 3.04631 4.83343 2.73414C4.83585 2.42196 4.90841 2.11433 5.04572 1.83397C5.18304 1.55361 5.38161 1.30769 5.62675 1.11439C5.87189 0.921099 6.15734 0.785367 6.462 0.717232C6.76666 0.649097 7.08273 0.650301 7.38686 0.720754C7.69099 0.791207 7.9754 0.929108 8.21906 1.12426C8.46272 1.31942 8.65941 1.56684 8.79459 1.84824C8.92977 2.12964 8.99998 2.43782 9.00003 2.75V15.6667C9.00003 16.1087 8.82443 16.5326 8.51187 16.8452C8.19931 17.1577 7.77539 17.3333 7.33336 17.3333C6.89134 17.3333 6.46741 17.1577 6.15485 16.8452C5.84229 16.5326 5.6667 16.1087 5.6667 15.6667M9.00003 4.83333C9.00003 5.49638 9.26342 6.13226 9.73226 6.6011C10.2011 7.06994 10.837 7.33333 11.5 7.33333M13.1667 10.6667C13.5305 10.6672 13.8897 10.7471 14.2194 10.9008C14.5491 11.0546 14.8413 11.2784 15.0755 11.5567C15.3098 11.8349 15.4805 12.161 15.5758 12.5121C15.671 12.8632 15.6885 13.2308 15.627 13.5893C15.5655 13.9478 15.4265 14.2886 15.2197 14.5879C15.0129 14.8872 14.7433 15.1377 14.4297 15.322C14.1161 15.5063 13.766 15.62 13.4039 15.655C13.0419 15.6901 12.6765 15.6457 12.3334 15.525" stroke="#FFB21E" stroke-width="1.25" stroke-linecap="round" stroke-linejoin="round"/>
<path d="M15.4467 12.0042C15.9454 11.7641 16.3764 11.4036 16.701 10.9552C17.0255 10.5069 17.2333 9.98477 17.3055 9.43603C17.3778 8.88729 17.3123 8.32918 17.1149 7.81209C16.9176 7.295 16.5945 6.83519 16.175 6.47417M16.15 6.40667C16.4233 5.99771 16.5431 5.50524 16.4881 5.01644C16.4332 4.52765 16.2071 4.07405 15.8499 3.73596C15.4926 3.39786 15.0272 3.19707 14.5362 3.16914C14.0451 3.14121 13.56 3.28793 13.1667 3.58333M9 2.75C9.00005 2.43782 9.07026 2.12964 9.20544 1.84824C9.34062 1.56684 9.53731 1.31942 9.78097 1.12426C10.0246 0.929108 10.309 0.791207 10.6132 0.720754C10.9173 0.650301 11.2334 0.649097 11.538 0.717232C11.8427 0.785367 12.1281 0.921099 12.3733 1.11439C12.6184 1.30769 12.817 1.55361 12.9543 1.83397C13.0916 2.11433 13.1642 2.42196 13.1666 2.73414C13.169 3.04631 13.1013 3.35504 12.9683 3.6375M12.3333 15.6667C12.3333 16.1087 12.1577 16.5326 11.8452 16.8452C11.5326 17.1577 11.1087 17.3333 10.6667 17.3333C10.2246 17.3333 9.80072 17.1577 9.48816 16.8452C9.1756 16.5326 9 16.1087 9 15.6667" stroke="#FFB21E" stroke-width="1.25" stroke-linecap="round" stroke-linejoin="round"/>
</svg>
