<svg width="18" height="12" viewBox="0 0 18 12" fill="none" xmlns="http://www.w3.org/2000/svg">
<path d="M8.99998 7.66666C9.44201 7.66666 9.86593 7.49107 10.1785 7.17851C10.4911 6.86595 10.6666 6.44202 10.6666 5.99999C10.6666 5.55797 10.4911 5.13404 10.1785 4.82148C9.86593 4.50892 9.44201 4.33333 8.99998 4.33333C8.55795 4.33333 8.13403 4.50892 7.82147 4.82148C7.50891 5.13404 7.33331 5.55797 7.33331 5.99999C7.33331 6.44202 7.50891 6.86595 7.82147 7.17851C8.13403 7.49107 8.55795 7.66666 8.99998 7.66666Z" stroke="#1125D6" stroke-width="1.25" stroke-linecap="round" stroke-linejoin="round"/>
<path d="M16.5 6C14.9258 8.4925 12.0983 11 9 11C5.90167 11 3.07417 8.4925 1.5 6C3.41583 3.63167 5.66 1 9 1C12.34 1 14.5842 3.63167 16.5 6Z" stroke="#1125D6" stroke-width="1.25" stroke-linecap="round" stroke-linejoin="round"/>
</svg>
