<svg width="10" height="18" viewBox="0 0 10 18" fill="none" xmlns="http://www.w3.org/2000/svg">
<path d="M7.44667 12.0042C7.94536 11.7641 8.37643 11.4036 8.70096 10.9552C9.02549 10.5069 9.23326 9.98477 9.30553 9.43603C9.37781 8.88729 9.3123 8.32918 9.11493 7.81209C8.91756 7.295 8.59453 6.83519 8.175 6.47417M8.15 6.40667C8.4233 5.99771 8.54308 5.50524 8.48815 5.01644C8.43322 4.52765 8.20711 4.07405 7.84985 3.73596C7.4926 3.39786 7.02724 3.19707 6.53616 3.16914C6.04508 3.14121 5.55996 3.28793 5.16667 3.58333M1 2.75C1.00005 2.43782 1.07026 2.12964 1.20544 1.84824C1.34062 1.56684 1.53731 1.31942 1.78097 1.12426C2.02463 0.929108 2.30904 0.791207 2.61317 0.720754C2.9173 0.650301 3.23337 0.649097 3.53803 0.717232C3.84269 0.785367 4.12814 0.921099 4.37328 1.11439C4.61842 1.30769 4.81699 1.55361 4.95431 1.83397C5.09162 2.11433 5.16418 2.42196 5.1666 2.73414C5.16903 3.04631 5.10127 3.35504 4.96833 3.6375M4.33333 15.6667C4.33333 16.1087 4.15774 16.5326 3.84518 16.8452C3.53262 17.1577 3.10869 17.3333 2.66667 17.3333C2.22464 17.3333 1.80072 17.1577 1.48816 16.8452C1.1756 16.5326 1 16.1087 1 15.6667" stroke="#FFB21E" stroke-width="1.25" stroke-linecap="round" stroke-linejoin="round"/>
</svg>
