<svg width="17" height="18" viewBox="0 0 17 18" fill="none" xmlns="http://www.w3.org/2000/svg">
<path d="M2.55336 12.0042C2.05467 11.7641 1.6236 11.4036 1.29907 10.9552C0.974544 10.5069 0.766768 9.98477 0.694495 9.43603C0.622223 8.88729 0.687729 8.32918 0.885102 7.81209C1.08248 7.295 1.4055 6.83519 1.82503 6.47417M1.85003 6.40667C1.57673 5.99771 1.45695 5.50524 1.51188 5.01644C1.56681 4.52765 1.79292 4.07405 2.15018 3.73596C2.50743 3.39786 2.97279 3.19707 3.46387 3.16914C3.95495 3.14121 4.44007 3.28793 4.83336 3.58333M5.0317 3.6375C4.89876 3.35504 4.831 3.04631 4.83343 2.73414C4.83585 2.42196 4.90841 2.11433 5.04572 1.83397C5.18304 1.55361 5.38161 1.30769 5.62675 1.11439C5.87189 0.921099 6.15734 0.785367 6.462 0.717232C6.76666 0.649097 7.08273 0.650301 7.38686 0.720754C7.69099 0.791207 7.9754 0.929108 8.21906 1.12426C8.46272 1.31942 8.65941 1.56684 8.79459 1.84824C8.92977 2.12964 8.99998 2.43782 9.00003 2.75V15.6667C9.00003 16.1087 8.82443 16.5326 8.51187 16.8452C8.19931 17.1577 7.77539 17.3333 7.33336 17.3333C6.89134 17.3333 6.46741 17.1577 6.15485 16.8452C5.84229 16.5326 5.6667 16.1087 5.6667 15.6667M9.00003 4.83333C9.00003 5.49638 9.26342 6.13226 9.73226 6.6011C10.2011 7.06994 10.837 7.33333 11.5 7.33333M13.1667 10.6667C13.5305 10.6672 13.8897 10.7471 14.2194 10.9008C14.5491 11.0546 14.8413 11.2784 15.0755 11.5567C15.3098 11.8349 15.4805 12.161 15.5758 12.5121C15.671 12.8632 15.6885 13.2308 15.627 13.5893C15.5655 13.9478 15.4265 14.2886 15.2197 14.5879C15.0129 14.8872 14.7433 15.1377 14.4297 15.322C14.1161 15.5063 13.766 15.62 13.4039 15.655C13.0419 15.6901 12.6765 15.6457 12.3334 15.525" stroke="#FFB21E" stroke-width="1.25" stroke-linecap="round" stroke-linejoin="round"/>
</svg>
